<svg width="135" height="48" viewBox="0 0 135 48" fill="none" xmlns="http://www.w3.org/2000/svg">
<rect width="135" height="48" rx="4" fill="#36B37F"/>
<path d="M24.2404 20.8842C24.176 20.3127 23.9104 19.87 23.4435 19.5561C22.9767 19.2382 22.3891 19.0792 21.6807 19.0792C21.1736 19.0792 20.7349 19.1597 20.3647 19.3207C19.9944 19.4776 19.7067 19.695 19.5014 19.9727C19.3002 20.2463 19.1996 20.5582 19.1996 20.9084C19.1996 21.2022 19.268 21.4557 19.4048 21.669C19.5457 21.8823 19.7288 22.0614 19.9542 22.2063C20.1836 22.3472 20.4291 22.4659 20.6907 22.5625C20.9523 22.6551 21.2038 22.7315 21.4453 22.7919L22.6527 23.1058C23.0471 23.2024 23.4516 23.3332 23.8661 23.4982C24.2806 23.6632 24.665 23.8806 25.0192 24.1502C25.3733 24.4199 25.6591 24.7539 25.8764 25.1523C26.0978 25.5508 26.2084 26.0277 26.2084 26.5831C26.2084 27.2834 26.0273 27.9052 25.6651 28.4485C25.3069 28.9918 24.7857 29.4205 24.1015 29.7344C23.4214 30.0483 22.5983 30.2053 21.6324 30.2053C20.7068 30.2053 19.9059 30.0584 19.2297 29.7646C18.5536 29.4708 18.0244 29.0542 17.642 28.5149C17.2597 27.9716 17.0484 27.3277 17.0081 26.5831H18.8796C18.9158 27.0298 19.0607 27.4021 19.3143 27.6999C19.5718 27.9937 19.8998 28.2131 20.2983 28.358C20.7007 28.4988 21.1414 28.5692 21.6204 28.5692C22.1476 28.5692 22.6165 28.4867 23.027 28.3217C23.4415 28.1527 23.7675 27.9193 24.005 27.6214C24.2424 27.3196 24.3611 26.9674 24.3611 26.565C24.3611 26.1987 24.2565 25.8989 24.0472 25.6655C23.842 25.4321 23.5622 25.2389 23.2081 25.0859C22.8579 24.933 22.4615 24.7982 22.0188 24.6815L20.5579 24.283C19.5678 24.0134 18.783 23.617 18.2035 23.0938C17.6279 22.5705 17.3402 21.8783 17.3402 21.017C17.3402 20.3047 17.5334 19.6829 17.9197 19.1516C18.3061 18.6204 18.8293 18.2079 19.4893 17.9141C20.1494 17.6162 20.8939 17.4673 21.723 17.4673C22.5601 17.4673 23.2986 17.6142 23.9385 17.908C24.5825 18.2018 25.0896 18.6063 25.4599 19.1214C25.8301 19.6326 26.0233 20.2202 26.0394 20.8842H24.2404ZM32.7991 30.1871C31.8855 30.1871 31.0987 29.992 30.4387 29.6016C29.7827 29.2071 29.2756 28.6538 28.9174 27.9414C28.5632 27.225 28.3861 26.3859 28.3861 25.424C28.3861 24.4742 28.5632 23.6371 28.9174 22.9126C29.2756 22.1882 29.7746 21.6228 30.4145 21.2163C31.0585 20.8098 31.8111 20.6065 32.6724 20.6065C33.1956 20.6065 33.7027 20.6931 34.1937 20.8661C34.6847 21.0392 35.1254 21.3108 35.5157 21.6811C35.9061 22.0514 36.214 22.5323 36.4394 23.1239C36.6648 23.7115 36.7775 24.4259 36.7775 25.267V25.907H29.4064V24.5547H35.0086C35.0086 24.0798 34.9121 23.6592 34.7189 23.293C34.5257 22.9227 34.254 22.6309 33.9039 22.4176C33.5578 22.2043 33.1513 22.0977 32.6844 22.0977C32.1773 22.0977 31.7346 22.2224 31.3563 22.4719C30.982 22.7174 30.6922 23.0394 30.487 23.4379C30.2858 23.8323 30.1851 24.2609 30.1851 24.7237V25.7802C30.1851 26.4 30.2938 26.9272 30.5111 27.3619C30.7325 27.7965 31.0404 28.1286 31.4348 28.358C31.8292 28.5833 32.29 28.696 32.8172 28.696C33.1593 28.696 33.4712 28.6477 33.753 28.5511C34.0347 28.4505 34.2782 28.3016 34.4834 28.1044C34.6887 27.9072 34.8457 27.6637 34.9543 27.3739L36.6628 27.6818C36.5259 28.1849 36.2804 28.6256 35.9263 29.0039C35.5761 29.3782 35.1354 29.67 34.6042 29.8793C34.0769 30.0845 33.4753 30.1871 32.7991 30.1871ZM43.2867 30.1871C42.3731 30.1871 41.5863 29.992 40.9262 29.6016C40.2702 29.2071 39.7631 28.6538 39.4049 27.9414C39.0508 27.225 38.8737 26.3859 38.8737 25.424C38.8737 24.4742 39.0508 23.6371 39.4049 22.9126C39.7631 22.1882 40.2622 21.6228 40.9021 21.2163C41.546 20.8098 42.2986 20.6065 43.1599 20.6065C43.6831 20.6065 44.1902 20.6931 44.6812 20.8661C45.1722 21.0392 45.6129 21.3108 46.0033 21.6811C46.3937 22.0514 46.7016 22.5323 46.9269 23.1239C47.1523 23.7115 47.265 24.4259 47.265 25.267V25.907H39.8939V24.5547H45.4962C45.4962 24.0798 45.3996 23.6592 45.2064 23.293C45.0132 22.9227 44.7416 22.6309 44.3914 22.4176C44.0453 22.2043 43.6388 22.0977 43.172 22.0977C42.6649 22.0977 42.2222 22.2224 41.8438 22.4719C41.4696 22.7174 41.1798 23.0394 40.9745 23.4379C40.7733 23.8323 40.6727 24.2609 40.6727 24.7237V25.7802C40.6727 26.4 40.7813 26.9272 40.9987 27.3619C41.22 27.7965 41.5279 28.1286 41.9223 28.358C42.3167 28.5833 42.7776 28.696 43.3048 28.696C43.6469 28.696 43.9588 28.6477 44.2405 28.5511C44.5222 28.4505 44.7657 28.3016 44.971 28.1044C45.1762 27.9072 45.3332 27.6637 45.4419 27.3739L47.1503 27.6818C47.0135 28.1849 46.768 28.6256 46.4138 29.0039C46.0637 29.3782 45.623 29.67 45.0917 29.8793C44.5645 30.0845 43.9628 30.1871 43.2867 30.1871ZM56.5918 17.6364V30H54.7868V17.6364H56.5918ZM59.5302 30V20.7273H61.3352V30H59.5302ZM60.4418 19.2965C60.1278 19.2965 59.8582 19.1919 59.6328 18.9826C59.4115 18.7693 59.3008 18.5157 59.3008 18.2219C59.3008 17.9241 59.4115 17.6706 59.6328 17.4613C59.8582 17.248 60.1278 17.1413 60.4418 17.1413C60.7557 17.1413 61.0233 17.248 61.2447 17.4613C61.47 17.6706 61.5827 17.9241 61.5827 18.2219C61.5827 18.5157 61.47 18.7693 61.2447 18.9826C61.0233 19.1919 60.7557 19.2965 60.4418 19.2965ZM72.2061 20.7273L68.8435 30H66.9117L63.5431 20.7273H65.481L67.8293 27.8629H67.9259L70.2683 20.7273H72.2061ZM78.0935 30.1871C77.1799 30.1871 76.3931 29.992 75.7331 29.6016C75.0771 29.2071 74.5699 28.6538 74.2118 27.9414C73.8576 27.225 73.6805 26.3859 73.6805 25.424C73.6805 24.4742 73.8576 23.6371 74.2118 22.9126C74.5699 22.1882 75.069 21.6228 75.7089 21.2163C76.3529 20.8098 77.1055 20.6065 77.9667 20.6065C78.4899 20.6065 78.997 20.6931 79.488 20.8661C79.979 21.0392 80.4197 21.3108 80.8101 21.6811C81.2005 22.0514 81.5084 22.5323 81.7338 23.1239C81.9592 23.7115 82.0718 24.4259 82.0718 25.267V25.907H74.7007V24.5547H80.303C80.303 24.0798 80.2064 23.6592 80.0132 23.293C79.8201 22.9227 79.5484 22.6309 79.1983 22.4176C78.8521 22.2043 78.4457 22.0977 77.9788 22.0977C77.4717 22.0977 77.029 22.2224 76.6507 22.4719C76.2764 22.7174 75.9866 23.0394 75.7814 23.4379C75.5801 23.8323 75.4795 24.2609 75.4795 24.7237V25.7802C75.4795 26.4 75.5882 26.9272 75.8055 27.3619C76.0269 27.7965 76.3347 28.1286 76.7292 28.358C77.1236 28.5833 77.5844 28.696 78.1116 28.696C78.4537 28.696 78.7656 28.6477 79.0473 28.5511C79.3291 28.4505 79.5726 28.3016 79.7778 28.1044C79.9831 27.9072 80.14 27.6637 80.2487 27.3739L81.9571 27.6818C81.8203 28.1849 81.5748 28.6256 81.2206 29.0039C80.8705 29.3782 80.4298 29.67 79.8985 29.8793C79.3713 30.0845 78.7696 30.1871 78.0935 30.1871Z" fill="white"/>
<path fill-rule="evenodd" clip-rule="evenodd" d="M100 24C100 20.134 103.134 17 107 17C107.552 17 108 16.5523 108 16C108 15.4477 107.552 15 107 15C102.029 15 98 19.0294 98 24C98 28.9706 102.029 33 107 33C111.971 33 116 28.9706 116 24C116 23.4477 115.552 23 115 23C114.448 23 114 23.4477 114 24C114 27.866 110.866 31 107 31C103.134 31 100 27.866 100 24ZM111 15C110.448 15 110 15.4477 110 16C110 16.5523 110.448 17 111 17H112.586L106.293 23.2929C105.902 23.6834 105.902 24.3166 106.293 24.7071C106.683 25.0976 107.317 25.0976 107.707 24.7071L114 18.4142V20C114 20.5523 114.448 21 115 21C115.552 21 116 20.5523 116 20V16C116 15.4477 115.552 15 115 15H111Z" fill="white"/>
</svg>
