<svg width="156" height="48" viewBox="0 0 156 48" fill="none" xmlns="http://www.w3.org/2000/svg">
<rect width="156" height="48" rx="4" fill="#36B37F"/>
<path d="M20.4677 20.8842C20.4033 20.3127 20.1377 19.87 19.6708 19.5561C19.204 19.2382 18.6164 19.0792 17.908 19.0792C17.4009 19.0792 16.9623 19.1597 16.592 19.3207C16.2217 19.4776 15.934 19.695 15.7287 19.9727C15.5275 20.2463 15.4269 20.5582 15.4269 20.9084C15.4269 21.2022 15.4953 21.4557 15.6321 21.669C15.773 21.8823 15.9561 22.0614 16.1815 22.2063C16.4109 22.3472 16.6564 22.4659 16.918 22.5625C17.1796 22.6551 17.4311 22.7315 17.6726 22.7919L18.88 23.1058C19.2744 23.2024 19.6789 23.3332 20.0934 23.4982C20.5079 23.6632 20.8923 23.8806 21.2465 24.1502C21.6006 24.4199 21.8864 24.7539 22.1037 25.1523C22.3251 25.5508 22.4357 26.0277 22.4357 26.5831C22.4357 27.2834 22.2546 27.9052 21.8924 28.4485C21.5342 28.9918 21.013 29.4205 20.3288 29.7344C19.6487 30.0483 18.8257 30.2053 17.8597 30.2053C16.9341 30.2053 16.1332 30.0584 15.457 29.7646C14.7809 29.4708 14.2517 29.0542 13.8693 28.5149C13.487 27.9716 13.2757 27.3277 13.2355 26.5831H15.1069C15.1431 27.0298 15.288 27.4021 15.5416 27.6999C15.7991 27.9937 16.1271 28.2131 16.5256 28.358C16.928 28.4988 17.3687 28.5692 17.8477 28.5692C18.3749 28.5692 18.8438 28.4867 19.2543 28.3217C19.6688 28.1527 19.9948 27.9193 20.2323 27.6214C20.4697 27.3196 20.5884 26.9674 20.5884 26.565C20.5884 26.1987 20.4838 25.8989 20.2745 25.6655C20.0693 25.4321 19.7895 25.2389 19.4354 25.0859C19.0852 24.933 18.6888 24.7982 18.2461 24.6815L16.7852 24.283C15.7951 24.0134 15.0103 23.617 14.4308 23.0938C13.8552 22.5705 13.5675 21.8783 13.5675 21.017C13.5675 20.3047 13.7607 19.6829 14.147 19.1516C14.5334 18.6204 15.0566 18.2079 15.7166 17.9141C16.3767 17.6162 17.1212 17.4673 17.9503 17.4673C18.7874 17.4673 19.5259 17.6142 20.1659 17.908C20.8098 18.2018 21.3169 18.6063 21.6872 19.1214C22.0574 19.6326 22.2506 20.2202 22.2667 20.8842H20.4677ZM29.0264 30.1871C28.1128 30.1871 27.326 29.992 26.666 29.6016C26.01 29.2071 25.5029 28.6538 25.1447 27.9414C24.7905 27.225 24.6134 26.3859 24.6134 25.424C24.6134 24.4742 24.7905 23.6371 25.1447 22.9126C25.5029 22.1882 26.0019 21.6228 26.6418 21.2163C27.2858 20.8098 28.0384 20.6065 28.8997 20.6065C29.4229 20.6065 29.93 20.6931 30.421 20.8661C30.912 21.0392 31.3527 21.3108 31.7431 21.6811C32.1334 22.0514 32.4413 22.5323 32.6667 23.1239C32.8921 23.7115 33.0048 24.4259 33.0048 25.267V25.907H25.6337V24.5547H31.236C31.236 24.0798 31.1394 23.6592 30.9462 23.293C30.753 22.9227 30.4813 22.6309 30.1312 22.4176C29.7851 22.2043 29.3786 22.0977 28.9117 22.0977C28.4046 22.0977 27.9619 22.2224 27.5836 22.4719C27.2093 22.7174 26.9195 23.0394 26.7143 23.4379C26.5131 23.8323 26.4124 24.2609 26.4124 24.7237V25.7802C26.4124 26.4 26.5211 26.9272 26.7384 27.3619C26.9598 27.7965 27.2677 28.1286 27.6621 28.358C28.0565 28.5833 28.5173 28.696 29.0445 28.696C29.3866 28.696 29.6985 28.6477 29.9803 28.5511C30.262 28.4505 30.5055 28.3016 30.7107 28.1044C30.916 27.9072 31.073 27.6637 31.1816 27.3739L32.8901 27.6818C32.7532 28.1849 32.5077 28.6256 32.1536 29.0039C31.8034 29.3782 31.3627 29.67 30.8315 29.8793C30.3043 30.0845 29.7026 30.1871 29.0264 30.1871ZM39.514 30.1871C38.6004 30.1871 37.8136 29.992 37.1535 29.6016C36.4975 29.2071 35.9904 28.6538 35.6322 27.9414C35.2781 27.225 35.101 26.3859 35.101 25.424C35.101 24.4742 35.2781 23.6371 35.6322 22.9126C35.9904 22.1882 36.4895 21.6228 37.1294 21.2163C37.7733 20.8098 38.5259 20.6065 39.3872 20.6065C39.9104 20.6065 40.4175 20.6931 40.9085 20.8661C41.3995 21.0392 41.8402 21.3108 42.2306 21.6811C42.621 22.0514 42.9289 22.5323 43.1542 23.1239C43.3796 23.7115 43.4923 24.4259 43.4923 25.267V25.907H36.1212V24.5547H41.7235C41.7235 24.0798 41.6269 23.6592 41.4337 23.293C41.2405 22.9227 40.9689 22.6309 40.6187 22.4176C40.2726 22.2043 39.8661 22.0977 39.3993 22.0977C38.8922 22.0977 38.4495 22.2224 38.0711 22.4719C37.6969 22.7174 37.4071 23.0394 37.2018 23.4379C37.0006 23.8323 36.9 24.2609 36.9 24.7237V25.7802C36.9 26.4 37.0086 26.9272 37.226 27.3619C37.4473 27.7965 37.7552 28.1286 38.1496 28.358C38.544 28.5833 39.0049 28.696 39.5321 28.696C39.8742 28.696 40.1861 28.6477 40.4678 28.5511C40.7495 28.4505 40.993 28.3016 41.1983 28.1044C41.4035 27.9072 41.5605 27.6637 41.6692 27.3739L43.3776 27.6818C43.2408 28.1849 42.9953 28.6256 42.6411 29.0039C42.291 29.3782 41.8503 29.67 41.319 29.8793C40.7918 30.0845 40.1901 30.1871 39.514 30.1871ZM57.9626 22.9911L56.3266 23.2809C56.2582 23.0716 56.1495 22.8724 56.0006 22.6832C55.8557 22.4941 55.6585 22.3391 55.409 22.2184C55.1595 22.0977 54.8475 22.0373 54.4733 22.0373C53.9621 22.0373 53.5355 22.152 53.1934 22.3814C52.8513 22.6068 52.6803 22.8986 52.6803 23.2567C52.6803 23.5666 52.795 23.8162 53.0244 24.0053C53.2538 24.1945 53.6241 24.3494 54.1352 24.4702L55.6082 24.8082C56.4614 25.0054 57.0973 25.3093 57.5159 25.7198C57.9344 26.1303 58.1437 26.6636 58.1437 27.3196C58.1437 27.875 57.9827 28.37 57.6608 28.8047C57.3428 29.2353 56.8981 29.5734 56.3266 29.8189C55.7591 30.0644 55.1011 30.1871 54.3525 30.1871C53.3142 30.1871 52.467 29.9658 51.811 29.5231C51.155 29.0763 50.7525 28.4425 50.6036 27.6214L52.3483 27.3558C52.4569 27.8106 52.6803 28.1547 53.0184 28.3881C53.3564 28.6175 53.7971 28.7322 54.3404 28.7322C54.9321 28.7322 55.405 28.6095 55.7591 28.364C56.1133 28.1145 56.2904 27.8106 56.2904 27.4524C56.2904 27.1626 56.1817 26.9192 55.9644 26.7219C55.7511 26.5247 55.4231 26.3758 54.9804 26.2752L53.4108 25.9311C52.5455 25.7339 51.9055 25.42 51.491 24.9893C51.0805 24.5587 50.8752 24.0134 50.8752 23.3533C50.8752 22.806 51.0282 22.3271 51.334 21.9165C51.6399 21.506 52.0625 21.1861 52.6018 20.9567C53.1411 20.7232 53.7589 20.6065 54.4551 20.6065C55.4573 20.6065 56.2461 20.8239 56.8216 21.2585C57.3971 21.6892 57.7775 22.2667 57.9626 22.9911ZM64.5442 30.1871C63.6749 30.1871 62.9163 29.9879 62.2683 29.5895C61.6204 29.1911 61.1173 28.6336 60.7591 27.9173C60.4009 27.2009 60.2218 26.3638 60.2218 25.4059C60.2218 24.444 60.4009 23.6029 60.7591 22.8825C61.1173 22.162 61.6204 21.6026 62.2683 21.2042C62.9163 20.8058 63.6749 20.6065 64.5442 20.6065C65.4136 20.6065 66.1722 20.8058 66.8202 21.2042C67.4681 21.6026 67.9712 22.162 68.3294 22.8825C68.6876 23.6029 68.8667 24.444 68.8667 25.4059C68.8667 26.3638 68.6876 27.2009 68.3294 27.9173C67.9712 28.6336 67.4681 29.1911 66.8202 29.5895C66.1722 29.9879 65.4136 30.1871 64.5442 30.1871ZM64.5503 28.6719C65.1137 28.6719 65.5806 28.523 65.9508 28.2251C66.3211 27.9273 66.5948 27.5309 66.7719 27.0359C66.953 26.5408 67.0435 25.9955 67.0435 25.3999C67.0435 24.8082 66.953 24.2649 66.7719 23.7699C66.5948 23.2708 66.3211 22.8704 65.9508 22.5685C65.5806 22.2667 65.1137 22.1158 64.5503 22.1158C63.9828 22.1158 63.5119 22.2667 63.1376 22.5685C62.7674 22.8704 62.4917 23.2708 62.3106 23.7699C62.1335 24.2649 62.045 24.8082 62.045 25.3999C62.045 25.9955 62.1335 26.5408 62.3106 27.0359C62.4917 27.5309 62.7674 27.9273 63.1376 28.2251C63.5119 28.523 63.9828 28.6719 64.5503 28.6719ZM77.2654 26.1545V20.7273H79.0765V30H77.3017V28.3942H77.2051C76.9918 28.8892 76.6497 29.3017 76.1788 29.6317C75.7119 29.9577 75.1304 30.1207 74.4341 30.1207C73.8385 30.1207 73.3113 29.9899 72.8524 29.7283C72.3977 29.4627 72.0395 29.0703 71.7779 28.5511C71.5203 28.032 71.3915 27.39 71.3915 26.6254V20.7273H73.1966V26.408C73.1966 27.0399 73.3716 27.543 73.7218 27.9173C74.0719 28.2915 74.5267 28.4787 75.0861 28.4787C75.4242 28.4787 75.7602 28.3942 76.0943 28.2251C76.4324 28.0561 76.7121 27.8005 76.9334 27.4585C77.1588 27.1164 77.2695 26.6817 77.2654 26.1545ZM82.0119 30V20.7273H83.7565V22.2003H83.8531C84.0222 21.7012 84.32 21.3088 84.7466 21.0231C85.1772 20.7333 85.6642 20.5884 86.2075 20.5884C86.3202 20.5884 86.453 20.5924 86.606 20.6005C86.7629 20.6085 86.8857 20.6186 86.9742 20.6307V22.3572C86.9018 22.3371 86.773 22.315 86.5879 22.2908C86.4027 22.2627 86.2176 22.2486 86.0325 22.2486C85.6058 22.2486 85.2255 22.3391 84.8915 22.5202C84.5615 22.6973 84.2999 22.9448 84.1067 23.2628C83.9135 23.5767 83.8169 23.9349 83.8169 24.3374V30H82.0119ZM92.6201 30.1871C91.7227 30.1871 90.9499 29.9839 90.302 29.5774C89.658 29.1669 89.163 28.6014 88.8169 27.881C88.4708 27.1606 88.2977 26.3356 88.2977 25.4059C88.2977 24.4641 88.4748 23.633 88.8289 22.9126C89.1831 22.1882 89.6822 21.6228 90.3261 21.2163C90.97 20.8098 91.7287 20.6065 92.602 20.6065C93.3063 20.6065 93.9342 20.7373 94.4856 20.9989C95.0369 21.2565 95.4816 21.6187 95.8197 22.0856C96.1618 22.5524 96.3651 23.0978 96.4294 23.7216H94.6727C94.5761 23.2869 94.3548 22.9126 94.0086 22.5987C93.6665 22.2848 93.2077 22.1278 92.6322 22.1278C92.1291 22.1278 91.6884 22.2607 91.3101 22.5263C90.9358 22.7879 90.6441 23.1622 90.4348 23.6491C90.2255 24.1321 90.1209 24.7036 90.1209 25.3636C90.1209 26.0398 90.2235 26.6233 90.4287 27.1143C90.634 27.6054 90.9238 27.9857 91.2981 28.2553C91.6764 28.525 92.1211 28.6598 92.6322 28.6598C92.9743 28.6598 93.2842 28.5974 93.5619 28.4727C93.8436 28.3439 94.0791 28.1607 94.2682 27.9233C94.4614 27.6858 94.5962 27.4001 94.6727 27.0661H96.4294C96.3651 27.6657 96.1699 28.201 95.8439 28.6719C95.5179 29.1428 95.0812 29.513 94.5338 29.7827C93.9905 30.0523 93.3526 30.1871 92.6201 30.1871ZM102.866 30.1871C101.953 30.1871 101.166 29.992 100.506 29.6016C99.8497 29.2071 99.3426 28.6538 98.9845 27.9414C98.6303 27.225 98.4532 26.3859 98.4532 25.424C98.4532 24.4742 98.6303 23.6371 98.9845 22.9126C99.3426 22.1882 99.8417 21.6228 100.482 21.2163C101.126 20.8098 101.878 20.6065 102.739 20.6065C103.263 20.6065 103.77 20.6931 104.261 20.8661C104.752 21.0392 105.192 21.3108 105.583 21.6811C105.973 22.0514 106.281 22.5323 106.506 23.1239C106.732 23.7115 106.845 24.4259 106.845 25.267V25.907H99.4734V24.5547H105.076C105.076 24.0798 104.979 23.6592 104.786 23.293C104.593 22.9227 104.321 22.6309 103.971 22.4176C103.625 22.2043 103.218 22.0977 102.751 22.0977C102.244 22.0977 101.802 22.2224 101.423 22.4719C101.049 22.7174 100.759 23.0394 100.554 23.4379C100.353 23.8323 100.252 24.2609 100.252 24.7237V25.7802C100.252 26.4 100.361 26.9272 100.578 27.3619C100.8 27.7965 101.107 28.1286 101.502 28.358C101.896 28.5833 102.357 28.696 102.884 28.696C103.226 28.696 103.538 28.6477 103.82 28.5511C104.102 28.4505 104.345 28.3016 104.551 28.1044C104.756 27.9072 104.913 27.6637 105.021 27.3739L106.73 27.6818C106.593 28.1849 106.347 28.6256 105.993 29.0039C105.643 29.3782 105.202 29.67 104.671 29.8793C104.144 30.0845 103.542 30.1871 102.866 30.1871Z" fill="white"/>
<g clip-path="url(#clip0_48_2221)">
<g clip-path="url(#clip1_48_2221)">
<path d="M140.999 21.4611C140.999 20.3212 140.633 19.2504 139.934 18.3178C140.201 17.4197 140.267 16.2798 140.201 14.9672C140.167 14.4145 139.735 14 139.203 14C138.903 14 136.374 14.0345 134.91 15.3817C133.646 15.1399 132.315 15.1399 131.018 15.3817C129.587 14.0345 127.058 14 126.726 14C126.193 14 125.761 14.4145 125.727 14.9672C125.628 16.2798 125.727 17.4197 125.994 18.3178C125.295 19.285 124.929 20.3558 124.929 21.4611C124.929 23.8791 126.726 26.0553 129.454 27.0915C129.354 27.2988 129.288 27.5406 129.221 27.7824C126.326 27.4715 124.962 24.7427 124.896 24.639C124.663 24.1209 124.064 23.9136 123.565 24.19C123.066 24.4318 122.866 25.0535 123.132 25.5717C123.199 25.7444 125.029 29.4404 129.055 29.8549V32.9637C129.055 33.5509 129.487 34 130.053 34H135.875C136.441 34 136.873 33.5509 136.873 32.9637V28.8532C136.873 28.2314 136.74 27.6442 136.507 27.1261C139.203 26.0553 140.999 23.9136 140.999 21.4611Z" fill="white"/>
</g>
</g>
<defs>
<clipPath id="clip0_48_2221">
<rect width="18" height="20" fill="white" transform="translate(123 14)"/>
</clipPath>
<clipPath id="clip1_48_2221">
<rect width="18" height="20" fill="white" transform="translate(123 14)"/>
</clipPath>
</defs>
</svg>
